<svg xmlns="http://www.w3.org/2000/svg" xmlns:xlink="http://www.w3.org/1999/xlink" viewBox="0 0 1382.56 707.23"><defs><style>.a,.x,.y{fill:none;stroke:#f1f2f2;stroke-miterlimit:10;}.a{stroke-width:2.91px;stroke-dasharray:2.91 11.64;opacity:0.25;}.b{fill:url(#a);}.c{fill:url(#b);}.d{fill:url(#c);}.e{fill:url(#d);}.f{fill:url(#e);}.g{fill:url(#f);}.h{fill:url(#g);}.i{fill:url(#h);}.j{fill:url(#i);}.k{fill:url(#j);}.l{fill:url(#k);}.m{fill:url(#l);}.n{fill:url(#m);}.o{fill:url(#n);}.p{fill:url(#o);}.q{fill:url(#p);}.r{fill:url(#q);}.s{fill:url(#r);}.t{fill:url(#s);}.u{font-size:37.82px;font-family:Montserrat-BlackItalic, Montserrat;font-weight:800;font-style:italic;}.ac,.u{fill:#fff;}.v{letter-spacing:-0.03em;}.w{letter-spacing:-0.01em;}.x{stroke-width:0.62px;}.y{stroke-width:0.26px;}.z{fill:#58595b;}.aa{fill:#f1f2f2;}.ab{fill:#6d6e71;}.ad{fill:#808285;}</style><linearGradient id="a" x1="1163.38" y1="188.58" x2="1382.56" y2="188.58" gradientUnits="userSpaceOnUse"><stop offset="0" stop-color="#488690"/><stop offset="0.25" stop-color="#3f7982"/><stop offset="0.72" stop-color="#27575e"/><stop offset="1" stop-color="#174045"/></linearGradient><linearGradient id="b" x1="1378.55" y1="162.74" x2="1379.46" y2="162.74" xlink:href="#a"/><linearGradient id="c" x1="1283.67" y1="148.61" x2="1284.01" y2="148.61" xlink:href="#a"/><linearGradient id="d" x1="1163.4" y1="173.09" x2="1382.43" y2="173.09" gradientUnits="userSpaceOnUse"><stop offset="0" stop-color="#74cddb"/><stop offset="0.22" stop-color="#6cc0cd"/><stop offset="0.62" stop-color="#599fa9"/><stop offset="1" stop-color="#437a81"/></linearGradient><linearGradient id="e" x1="448.67" y1="58.55" x2="667.85" y2="58.55" xlink:href="#a"/><linearGradient id="f" x1="522.62" y1="93.66" x2="535.08" y2="93.66" xlink:href="#a"/><linearGradient id="g" x1="663.84" y1="32.71" x2="664.75" y2="32.71" xlink:href="#a"/><linearGradient id="h" x1="568.96" y1="18.58" x2="569.3" y2="18.58" xlink:href="#a"/><linearGradient id="i" x1="448.7" y1="43.05" x2="667.72" y2="43.05" xlink:href="#d"/><linearGradient id="j" x1="590.56" y1="564.67" x2="809.74" y2="564.67" xlink:href="#a"/><linearGradient id="k" x1="664.51" y1="599.78" x2="676.97" y2="599.78" xlink:href="#a"/><linearGradient id="l" x1="805.73" y1="538.82" x2="806.64" y2="538.82" xlink:href="#a"/><linearGradient id="m" x1="710.85" y1="524.69" x2="711.19" y2="524.69" xlink:href="#a"/><linearGradient id="n" x1="590.58" y1="549.17" x2="809.61" y2="549.17" xlink:href="#d"/><linearGradient id="o" x1="0" y1="395.24" x2="219.19" y2="395.24" xlink:href="#a"/><linearGradient id="p" x1="73.95" y1="430.35" x2="86.41" y2="430.35" xlink:href="#a"/><linearGradient id="q" x1="215.17" y1="369.4" x2="216.09" y2="369.4" xlink:href="#a"/><linearGradient id="r" x1="120.29" y1="355.27" x2="120.63" y2="355.27" xlink:href="#a"/><linearGradient id="s" x1="0.03" y1="379.74" x2="219.05" y2="379.74" xlink:href="#d"/></defs><ellipse class="a" cx="711.3" cy="296.45" rx="651.86" ry="261.42"/><path class="b" d="M1251.66,225.31a153.34,153.34,0,0,1-49.15-10.51c-24.62-9.78-31.56-20.21-33.75-23.92a38.29,38.29,0,0,1-4.81-12.81,23.85,23.85,0,0,1-.54-5.85c.63-9.85,10.46-16.8,10.33-16.93a11.59,11.59,0,0,0-4.93,5.71c-.63,1.52-2.18,6.17,1.83,14.81,5.57,12,15.84,18.65,18,20.06,22.53,14.79,48.86,18.11,63,19.28,3.63.29,64.27,4.72,107-19.63,8.44-4.81,15.92-10.65,18.58-20a19,19,0,0,0,.84-4.4c.41-10.67-11-18.31-13.45-19.92,1.64.67,15.32,6.42,17.69,19.15a21.36,21.36,0,0,1-.13,8.29,31.71,31.71,0,0,1-4,10c-8.56,13.6-29.6,22.61-29.6,22.61a226.85,226.85,0,0,1-62,13.95A225.27,225.27,0,0,1,1251.66,225.31Z"/><path class="c" d="M1379.46,163l-.91-.5Z"/><polygon class="d" points="1284.01 148.49 1283.92 148.73 1283.67 148.57 1284.01 148.49"/><ellipse class="e" cx="1272.92" cy="173.09" rx="109.51" ry="43.05"/><path class="f" d="M537,95.27A152.79,152.79,0,0,1,487.8,84.76c-24.62-9.77-31.56-20.2-33.75-23.92A38.13,38.13,0,0,1,449.24,48a23.77,23.77,0,0,1-.54-5.84c.63-9.85,10.46-16.81,10.33-16.93A11.53,11.53,0,0,0,454.1,31c-.63,1.52-2.18,6.16,1.83,14.8,5.57,12,15.84,18.66,18,20.06,22.53,14.8,48.86,18.12,63,19.28,3.63.3,64.27,4.73,107-19.62,8.44-4.82,15.92-10.65,18.58-20a18.83,18.83,0,0,0,.84-4.4c.41-10.66-11-18.3-13.45-19.91,1.64.66,15.32,6.42,17.69,19.15a21.36,21.36,0,0,1-.13,8.29,31.7,31.7,0,0,1-4,10c-8.56,13.6-29.6,22.62-29.6,22.62a226.88,226.88,0,0,1-62,13.94A225.27,225.27,0,0,1,537,95.27Z"/><path class="g" d="M522.62,93c4.23.12,8.68-.87,12.46,1.47A41.89,41.89,0,0,1,522.62,93Z"/><path class="h" d="M664.75,33l-.91-.5Z"/><polygon class="i" points="569.3 18.46 569.21 18.7 568.96 18.53 569.3 18.46"/><ellipse class="j" cx="558.21" cy="43.05" rx="109.51" ry="43.05"/><path class="k" d="M678.84,601.39a153.34,153.34,0,0,1-49.15-10.51c-24.62-9.78-31.56-20.21-33.75-23.92a38.29,38.29,0,0,1-4.81-12.81,23.37,23.37,0,0,1-.54-5.85c.63-9.85,10.46-16.8,10.33-16.93a11.59,11.59,0,0,0-4.93,5.71c-.63,1.53-2.18,6.17,1.83,14.81,5.57,12,15.84,18.66,18,20.06,22.53,14.79,48.86,18.11,63,19.28,3.63.29,64.27,4.72,107-19.63,8.45-4.81,15.93-10.65,18.59-20a19.58,19.58,0,0,0,.84-4.4c.41-10.67-11-18.31-13.46-19.92,1.65.67,15.33,6.42,17.7,19.15a21.35,21.35,0,0,1-.13,8.29,31.71,31.71,0,0,1-4,10c-8.56,13.6-29.6,22.61-29.6,22.61a225.42,225.42,0,0,1-96.83,14Z"/><path class="l" d="M664.51,599.08c4.23.11,8.67-.88,12.46,1.46A41.56,41.56,0,0,1,664.51,599.08Z"/><path class="m" d="M806.64,539.07l-.91-.5Z"/><polygon class="n" points="711.19 524.58 711.1 524.81 710.85 524.65 711.19 524.58"/><ellipse class="o" cx="700.1" cy="549.17" rx="109.51" ry="43.05"/><path class="p" d="M88.28,432a153.13,153.13,0,0,1-49.15-10.51c-24.62-9.77-31.55-20.2-33.74-23.92A38.31,38.31,0,0,1,.57,384.72,23.81,23.81,0,0,1,0,378.88C.67,369,10.49,362.07,10.36,362a11.59,11.59,0,0,0-4.93,5.7c-.63,1.53-2.18,6.17,1.83,14.81,5.57,12,15.84,18.66,18,20.06,22.53,14.8,48.87,18.12,63,19.28,3.63.3,64.27,4.72,107-19.63,8.44-4.81,15.92-10.64,18.58-20a18.92,18.92,0,0,0,.84-4.4c.41-10.67-11-18.31-13.45-19.91,1.64.66,15.32,6.41,17.69,19.14a21.41,21.41,0,0,1-.13,8.3,31.82,31.82,0,0,1-4,10c-8.57,13.6-29.61,22.61-29.61,22.61a225.42,225.42,0,0,1-96.83,14Z"/><path class="q" d="M74,429.65c4.23.12,8.68-.87,12.46,1.47A41.89,41.89,0,0,1,74,429.65Z"/><path class="r" d="M216.09,369.65l-.92-.5Z"/><polygon class="s" points="120.63 355.15 120.54 355.38 120.29 355.22 120.63 355.15"/><ellipse class="t" cx="109.54" cy="379.74" rx="109.51" ry="43.05"/><text class="u" transform="translate(569.98 653.96)">DIGI<tspan class="v" x="86.8" y="0">T</tspan><tspan x="110.21" y="0">AL A</tspan><tspan class="w" x="205.86" y="0">R</tspan><tspan x="233.65" y="0">T</tspan></text><polygon class="x" points="431.27 615.91 448.67 616.71 466.07 617.51 456.68 632.18 447.29 646.85 439.28 631.38 431.27 615.91"/><polygon class="y" points="393.89 590.48 401.01 590.81 408.13 591.13 404.29 597.14 400.44 603.14 397.16 596.81 393.89 590.48"/><path class="z" d="M692.33,515c-26.56,12.21-33.6,18.91-32.48,22.72,2.08,7,32.18,5.15,32.48,9.12.27,3.49-23.08,4.5-23.9,10.42-.93,6.73,27.11,20.86,53.11,15.27,15.26-3.28,30-13.39,28.39-19-2.31-8.12-38.46-5.24-38.81-9.5-.27-3.41,23-5.23,23.7-11C735.21,529.61,727.57,524.1,692.33,515Z"/><path class="aa" d="M689.68,516.19c-26.56,12.21-33.61,18.91-32.48,22.72,2.07,7,32.17,5.15,32.48,9.12.26,3.49-23.09,4.5-23.9,10.42-.93,6.73,27.1,20.86,53.11,15.27,15.25-3.28,30-13.39,28.39-19-2.32-8.12-38.47-5.24-38.81-9.5-.28-3.41,23-5.23,23.69-11C732.56,530.81,724.91,525.3,689.68,516.19Z"/><path class="ab" d="M110.65,388.92c-.48,1.27-.92,2.55-1.46,3.81-2,4.74-7.43,6.24-16.69,4.43a78,78,0,0,1-10.72-2.82c-6.62-2.31-13.23-4.66-19.31-7.29C47.12,380.43,49.3,369.11,67,364c12.24-3.55,24.87-6.8,37.29-10.21a23.51,23.51,0,0,1,13,0c11.71,3.27,23.67,6.33,35.3,9.66,21.7,6.22,22.16,19.68.78,26.17-8.61,2.61-17.67,4.95-27,7s-13.14.67-14.21-4.21c-.23-1.09-.26-2.19-.39-3.29Zm-27.34-5.38c9.89,5.13,44.78,4.94,53.24-.17-1.72-.95-3.46-2-5.36-2.93-2.12-1.07-4.65-2-6.55-3.1-3.29-2-2.57-3.6,1.8-4.94.85-.26,1.83-.43,2.72-.67,6.41-1.72,7.28-2.93,3.23-5.87-5.56-4-13.12-7.11-22.22-10.14-7.08,3.34-14.45,6.4-20.77,9.9-5.33,2.95-4.12,4.52,3,6.27.91.22,1.91.37,2.76.63,3.84,1.19,4.57,2.57,1.72,4.34-2,1.24-4.8,2.19-7.13,3.33S85.41,382.44,83.31,383.54Z"/><path class="ac" d="M107.05,390.12c-.48,1.27-.93,2.55-1.46,3.81-2,4.74-7.43,6.24-16.69,4.43a78,78,0,0,1-10.72-2.82c-6.62-2.31-13.23-4.66-19.31-7.29-15.35-6.62-13.17-17.94,4.5-23.08,12.24-3.55,24.87-6.8,37.29-10.21a23.51,23.51,0,0,1,13,0c11.71,3.27,23.67,6.33,35.3,9.66,21.7,6.22,22.16,19.68.78,26.17-8.61,2.61-17.67,4.95-26.95,7s-13.14.67-14.21-4.21c-.23-1.09-.26-2.19-.39-3.29Zm-27.34-5.38c9.89,5.13,44.78,4.94,53.24-.17-1.72-.95-3.46-2-5.36-2.93-2.12-1.06-4.65-2-6.55-3.1-3.29-2-2.57-3.6,1.8-4.94.85-.26,1.83-.43,2.72-.67,6.41-1.72,7.28-2.93,3.23-5.87-5.56-4-13.12-7.11-22.22-10.14-7.08,3.34-14.45,6.4-20.77,9.9-5.33,2.95-4.12,4.52,3,6.27.91.22,1.91.37,2.76.63,3.84,1.19,4.57,2.57,1.72,4.34-2,1.24-4.8,2.19-7.13,3.33S81.81,383.64,79.71,384.74Z"/><path class="ab" d="M1265.16,144.28c-2.06,1.61-3.59,2.7-4.93,3.86-5.42,4.75-8.52,9.88-5.88,15.65,2.41,5.3,8.28,8.89,17.07,10.37,8.1,1.35,15.39.06,21.18-3.67,6.24-4,7.41-8.67,4.17-13.73-2.57-4-6.64-7.35-12.58-9.83-1.73-.72-3.43-1.47-5.82-2.5,21.15-.29,40.65,9,44.75,20.84,2.81,8.16,1.16,16.1-4.62,23.65-2.06,2.69-4.36,5.83-10.07,6s-7.23-3.19-9.88-5.45c-3-2.56-5.55-5.37-9-7.7-7.46-5.07-16.34-5.94-26.31-2.76-3.5,1.11-6.66,2.63-10,4-2.68,1.09-5.21,2.36-8,3.27-6.06,2-11.07,1.19-13.44-2.62a18,18,0,0,1-3-10c.59-12.26,9.38-21.83,27.72-27.85a46.6,46.6,0,0,1,4.79-1.26A36.81,36.81,0,0,1,1265.16,144.28Z"/><path class="ac" d="M1261.61,144.28c-2.06,1.61-3.59,2.7-4.93,3.86-5.42,4.75-8.51,9.88-5.88,15.65,2.41,5.3,8.28,8.89,17.07,10.37,8.1,1.35,15.39.06,21.18-3.67,6.24-4,7.41-8.67,4.17-13.73-2.57-4-6.64-7.35-12.58-9.83-1.73-.72-3.43-1.47-5.82-2.5,21.15-.29,40.65,9,44.75,20.84,2.81,8.16,1.16,16.1-4.62,23.65-2.06,2.69-4.35,5.83-10.07,6s-7.23-3.19-9.88-5.45c-3-2.56-5.55-5.37-9-7.7-7.46-5.07-16.34-5.94-26.31-2.76-3.5,1.11-6.66,2.63-10,4-2.68,1.09-5.21,2.36-8,3.27-6.06,2-11.07,1.19-13.43-2.62a17.89,17.89,0,0,1-3-10c.59-12.26,9.38-21.83,27.72-27.85a46.6,46.6,0,0,1,4.79-1.26A36.81,36.81,0,0,1,1261.61,144.28Z"/><path class="ad" d="M540.24,54.56c-1.3-1.11-3-2.13-3.82-3.36-6.27-8.88-9.8-17.77-9-26.42.46-5.17,3.57-6.1,10.45-3.72,2.49.86,5,1.9,7.47,2.67,7.45,2.27,12.14,1.22,15.19-3.27,3.69-5.43,6.77-5.69,14,.27a127.52,127.52,0,0,1,15.74,15.79c4.3,5.08,7.54,10.58,11.09,15.93,1.2,1.8,2,3.74.39,5.72-2.31-1.38-4.61-2.56-6.64-4-7.92-5.75-15.65-11.69-23.67-17.33a43.28,43.28,0,0,0-9.29-4.68c-8-3.05-13.65-1.89-16,3.68-1.45,3.48-1.71,7.51-2.52,11.29-.54,2.47-1.12,4.91-1.68,7.37Z"/><path class="ac" d="M540.16,57c-1.29-1.11-2.95-2.13-3.82-3.36-6.26-8.88-9.8-17.77-9-26.42.46-5.17,3.56-6.1,10.44-3.72,2.5.87,5,1.9,7.48,2.67,7.45,2.27,12.14,1.22,15.19-3.27,3.68-5.43,6.77-5.69,14,.27a127.52,127.52,0,0,1,15.74,15.79C594.4,44,597.65,49.5,601.2,54.85c1.19,1.8,2,3.74.39,5.72-2.31-1.38-4.62-2.56-6.64-4C587,50.79,579.3,44.85,571.28,39.21a43.35,43.35,0,0,0-9.3-4.68c-8-3.05-13.64-1.89-16,3.68-1.45,3.48-1.71,7.51-2.53,11.29-.53,2.47-1.12,4.91-1.68,7.37Z"/></svg>